HIERARCHY
ROOT Pelvis
{
	OFFSET 0.000000 0.000000 0.000000
	CHANNELS 6 Xposition Yposition Zposition Xrotation Yrotation Zrotation
	JOINT LeftUpLeg_virtual
	{
		OFFSET 0.000000 0.000000 0.000000
		CHANNELS 3 Xrotation Yrotation Zrotation
		JOINT LeftUpLeg
		{
			OFFSET 18.735201 -5.666702 -4.541200
			CHANNELS 3 Xrotation Yrotation Zrotation
			JOINT LeftLeg
			{
				OFFSET -0.021200 -31.938179 0.493100
				CHANNELS 3 Xrotation Yrotation Zrotation
				JOINT LeftFoot
				{
					OFFSET 0.021200 -31.938179 -4.336299
					CHANNELS 3 Xrotation Yrotation Zrotation
					JOINT LeftToeBase
					{
						OFFSET 0.943001 -26.722000 15.023500
						CHANNELS 3 Xrotation Yrotation Zrotation
						End Site
						{
							OFFSET 0 0 0
						}
					}
				}
			}
		}
	}
	JOINT RightUpLeg_virtual
	{
		OFFSET 0.000000 0.000000 0.000000
		CHANNELS 3 Xrotation Yrotation Zrotation
		JOINT RightUpLeg
		{
			OFFSET -18.735201 -5.666702 -4.541200
			CHANNELS 3 Xrotation Yrotation Zrotation
			JOINT RightLeg
			{
				OFFSET 0.018946 -31.938133 0.493100
				CHANNELS 3 Xrotation Yrotation Zrotation
				JOINT RightFoot
				{
					OFFSET -0.018946 -31.938126 -4.336299
					CHANNELS 3 Xrotation Yrotation Zrotation
					JOINT RightToeBase
					{
						OFFSET -0.943001 -26.722004 15.023500
						CHANNELS 3 Xrotation Yrotation Zrotation
						End Site
						{
							OFFSET 0 0 0
						}
					}
				}
			}
		}
	}
	JOINT Hips_virtual
	{
		OFFSET 0.000000 0.000000 0.000000
		CHANNELS 3 Xrotation Yrotation Zrotation
		JOINT Hips
		{
			OFFSET -0.000000 -0.000000 -0.000000
			CHANNELS 3 Xrotation Yrotation Zrotation
			JOINT Spine
			{
				OFFSET 0.000000 10.199997 -0.299500
				CHANNELS 3 Xrotation Yrotation Zrotation
				JOINT Spine1
				{
					OFFSET 0.000000 11.900002 -1.516600
					CHANNELS 3 Xrotation Yrotation Zrotation
					JOINT Spine2
					{
						OFFSET 0.000000 13.600006 -2.842500
						CHANNELS 3 Xrotation Yrotation Zrotation
						JOINT Neck_virtual
						{
							OFFSET 0.000000 0.000000 0.000000
							CHANNELS 3 Xrotation Yrotation Zrotation
							JOINT Neck
							{
								OFFSET 0.000000 9.624100 -2.890100
								CHANNELS 3 Xrotation Yrotation Zrotation
								JOINT Head
								{
									OFFSET 0.000000 14.068802 -1.351900
									CHANNELS 3 Xrotation Yrotation Zrotation
									End Site
									{
										OFFSET 0 0 0
									}
								}
							}
						}
						JOINT LeftShoulder_virtual
						{
							OFFSET 0.000000 0.000000 0.000000
							CHANNELS 3 Xrotation Yrotation Zrotation
							JOINT LeftShoulder
							{
								OFFSET 15.263000 10.923401 -0.547700
								CHANNELS 3 Xrotation Yrotation Zrotation
								JOINT LeftArm
								{
									OFFSET 25.438599 -2.830597 -13.032500
									CHANNELS 3 Xrotation Yrotation Zrotation
									JOINT LeftForeArm
									{
										OFFSET 29.960503 0.000000 0.000000
										CHANNELS 3 Xrotation Yrotation Zrotation
										JOINT LeftHand
										{
											OFFSET 27.849251 0.000000 0.000000
											CHANNELS 3 Xrotation Yrotation Zrotation
											End Site
											{
												OFFSET 0 0 0
											}
										}
									}
								}
							}
						}
						JOINT RightShoulder_virtual
						{
							OFFSET 0.000000 0.000000 0.000000
							CHANNELS 3 Xrotation Yrotation Zrotation
							JOINT RightShoulder
							{
								OFFSET -15.263000 10.923401 -0.547700
								CHANNELS 3 Xrotation Yrotation Zrotation
								JOINT RightArm
								{
									OFFSET -25.438599 -2.830597 -13.032500
									CHANNELS 3 Xrotation Yrotation Zrotation
									JOINT RightForeArm
									{
										OFFSET -29.960503 0.000000 0.000000
										CHANNELS 3 Xrotation Yrotation Zrotation
										JOINT RightHand
										{
											OFFSET -27.849251 0.000000 0.000000
											CHANNELS 3 Xrotation Yrotation Zrotation
											End Site
											{
												OFFSET 0 0 0
											}
										}
									}
								}
							}
						}
					}
				}
			}
		}
	}
}
MOTION
Frames: 9
Frame Time: 0.03333333
-3.288546 79.843697 5.999146 0.000000 0.000000 0.000000 2.446991 -44.262716 7.142891 -41.145913 10.044845 25.024659 60.073775 -13.400730 -3.502962 -24.557966 -5.239291 -11.462597 0.000000 0.000000 0.000000 1.960699 -42.958970 6.788543 -26.291476 -9.851734 -36.169185 59.563635 -3.553329 -6.147542 -27.661354 -9.227960 28.643826 0.000000 0.000000 0.000000 1.486751 -43.160280 6.738189 -0.530958 -1.039020 -0.645795 9.219716 12.590185 -4.621712 1.928703 3.446567 -1.963012 0.000000 0.000000 0.000000 1.152106 3.151309 -2.111711 0.333626 2.500636 -0.916023 0.000000 0.000000 0.000000 1.515795 3.143987 -2.034680 1.679753 2.301047 -2.672815 -2.959755 -2.038286 -41.726766 177.660255 -49.879826 176.178746 0.000000 0.000000 0.000000 1.494916 3.394370 -2.119637 -0.059916 14.825774 -5.098287 -50.495554 19.813506 60.968714 -175.235743 75.795559 174.720638 0.000000 0.000000 0.000000 
-2.738709 79.947754 5.411770 0.000000 0.000000 0.000000 3.055942 -50.684273 7.407032 -38.211172 10.574885 24.788182 60.643945 -12.349586 -3.005897 -26.137729 -2.561810 -9.921418 0.000000 0.000000 0.000000 2.493138 -49.313133 7.127010 -30.452016 -5.972237 -35.437289 60.007255 -2.424544 -6.860702 -26.040328 -6.688819 27.530153 0.000000 0.000000 0.000000 1.954900 -48.853222 6.947703 -0.604701 -1.293543 -0.551586 9.595467 12.264242 -4.279135 2.053882 3.336095 -1.875356 0.000000 0.000000 0.000000 1.266883 3.069561 -2.110814 0.325134 3.048077 -1.137834 0.000000 0.000000 0.000000 1.714367 3.074214 -1.795441 1.463418 3.226827 -1.598048 -4.919871 2.177284 -35.806464 176.983329 -52.475131 175.778101 0.000000 0.000000 0.000000 1.630652 3.356785 -1.776809 0.094160 11.578174 -3.372999 -52.562329 23.468289 67.376606 -176.405918 73.134333 176.270927 0.000000 0.000000 0.000000 
-2.266601 80.029472 4.773987 0.000000 0.000000 0.000000 3.213023 -55.820595 6.888319 -35.660865 10.311125 24.490695 62.095121 -11.331671 -1.883126 -27.612703 -0.423071 -8.864745 0.000000 0.000000 0.000000 2.694376 -54.537080 6.636392 -33.973385 -3.182796 -34.236767 60.147452 -1.187032 -7.140319 -24.977324 -4.447917 26.900205 0.000000 0.000000 0.000000 2.259738 -53.490394 6.484064 -0.750698 -1.331825 -0.568562 10.070121 11.140638 -3.804880 2.054913 2.857032 -1.833640 0.000000 0.000000 0.000000 1.256940 2.601930 -2.071405 0.142543 3.556381 -1.287985 0.000000 0.000000 0.000000 1.908717 2.653002 -1.597173 1.288495 4.334035 0.323372 -11.156280 1.956118 -29.771562 175.190828 -63.031977 174.552314 0.000000 0.000000 0.000000 1.696564 2.861228 -1.622836 0.517961 9.263151 -2.465672 -54.056084 28.135692 72.651192 -176.741472 71.053338 177.061425 0.000000 0.000000 0.000000 
-1.921247 80.018944 4.269262 0.000000 0.000000 0.000000 2.546296 -58.681365 5.370897 -34.231081 9.402482 24.389844 64.086490 -10.501069 -0.508673 -28.809304 0.893791 -8.717792 0.000000 0.000000 0.000000 2.251317 -57.623246 5.215427 -36.311400 -2.013987 -32.965355 60.290134 -0.193564 -6.985127 -24.278049 -2.823302 26.748059 0.000000 0.000000 0.000000 2.114194 -56.245057 5.319206 -0.978861 -1.441337 -0.845139 10.629975 9.123715 -3.260780 1.998996 1.953642 -1.854875 0.000000 0.000000 0.000000 1.208808 1.703703 -2.037446 -0.162239 3.976132 -1.331288 0.000000 0.000000 0.000000 2.106583 1.789853 -1.470021 1.210664 5.165617 2.376754 -20.346548 -3.804067 -26.004210 163.793278 -82.671694 163.785518 0.000000 0.000000 0.000000 1.767435 1.864416 -1.702183 1.036150 7.801111 -2.304660 -53.293480 32.858582 75.921733 -177.026810 68.658721 177.580916 0.000000 0.000000 0.000000 
-1.750952 79.880493 3.880611 0.000000 0.000000 0.000000 1.137296 -58.839716 3.165785 -34.289305 7.760483 24.299463 66.208794 -9.963328 0.975763 -29.640402 1.341640 -9.404690 0.000000 0.000000 0.000000 1.259853 -58.092774 3.147724 -36.865799 -2.705576 -31.942093 60.229004 0.200214 -6.532352 -24.009817 -2.231055 26.744594 0.000000 0.000000 0.000000 1.606711 -56.703199 3.801696 -1.262109 -1.392063 -1.023177 11.285967 6.567477 -2.803916 2.020289 0.831150 -1.929039 0.000000 0.000000 0.000000 1.198787 0.552755 -2.018349 -0.503740 4.232246 -1.266089 0.000000 0.000000 0.000000 2.209894 0.677682 -1.480744 1.231055 5.495893 3.868636 -30.374920 -12.731252 -26.476269 4.795840 -72.263299 5.325661 0.000000 0.000000 0.000000 1.892889 0.598063 -1.970152 1.318050 7.360355 -2.437077 -48.928159 36.815020 76.233831 -177.015540 65.603516 177.562119 0.000000 0.000000 0.000000 
-1.673067 79.705460 3.802128 0.000000 0.000000 0.000000 -0.185304 -56.555489 1.297479 -35.377702 5.679851 23.818944 67.707235 -9.754009 2.420796 -30.170052 0.935522 -10.728301 0.000000 0.000000 0.000000 0.320066 -56.012752 1.293680 -35.448962 -4.845155 -31.412603 59.970434 -0.254331 -6.124646 -24.561616 -2.953556 26.518824 0.000000 0.000000 0.000000 1.036956 -54.949227 2.472694 -1.653623 -1.376050 -1.170108 11.901010 4.171232 -2.639400 2.072696 -0.130012 -2.057629 0.000000 0.000000 0.000000 1.323674 -0.437494 -2.031609 -0.822634 4.274100 -1.111278 0.000000 0.000000 0.000000 2.171808 -0.309892 -1.608179 1.333855 5.162604 4.336431 -39.197745 -20.943109 -30.881362 1.369392 -53.914563 2.029012 0.000000 0.000000 0.000000 2.044886 -0.517799 -2.316759 1.223028 8.311774 -2.380678 -40.492397 39.114161 72.009974 -176.978056 61.664423 177.409123 0.000000 0.000000 0.000000 
-1.621737 79.513664 3.979948 0.000000 0.000000 0.000000 -0.843197 -52.375448 0.459220 -36.874040 3.459527 22.653108 68.090969 -9.961437 3.660814 -30.614694 -0.383239 -12.495328 0.000000 0.000000 0.000000 -0.331833 -51.958082 0.206791 -32.234900 -7.831294 -31.409246 59.348422 -1.437830 -5.993535 -26.029972 -4.874335 26.171057 0.000000 0.000000 0.000000 0.509963 -51.306602 1.655677 -1.782115 -1.454213 -1.204374 12.402150 2.641823 -2.844994 2.200935 -0.575273 -2.209299 0.000000 0.000000 0.000000 1.595976 -0.880740 -2.064647 -1.033782 4.064758 -0.916422 0.000000 0.000000 0.000000 2.035337 -0.782127 -1.820726 1.416589 4.291052 3.721444 -43.872556 -25.610906 -36.720586 1.061348 -50.194305 1.413738 0.000000 0.000000 0.000000 2.185038 -1.032928 -2.643823 0.831251 10.622995 -2.275451 -29.876364 38.902541 63.515616 -176.727197 57.994002 177.028340 0.000000 0.000000 0.000000 
-1.543227 79.336533 4.333494 0.000000 0.000000 0.000000 -0.975491 -47.041692 0.565055 -38.683937 1.551933 20.957708 67.646214 -10.451200 4.458886 -30.393030 -2.369193 -14.183273 0.000000 0.000000 0.000000 -0.672544 -46.579390 -0.040019 -27.968455 -11.190346 -31.921162 58.358741 -2.974450 -6.011490 -28.336834 -7.543141 26.188262 0.000000 0.000000 0.000000 0.081413 -46.338131 1.445590 -1.947179 -1.363917 -1.153732 12.805095 2.515087 -3.335794 2.348686 -0.249758 -2.369486 0.000000 0.000000 0.000000 1.907033 -0.503891 -2.107945 -1.119051 3.613208 -0.740509 0.000000 0.000000 0.000000 1.836666 -0.446926 -2.078747 1.396771 3.270906 2.589885 -42.278789 -26.515768 -41.790741 2.153211 -61.098446 1.969061 0.000000 0.000000 0.000000 2.296480 -0.674178 -2.878024 0.317137 14.328803 -2.452518 -20.896581 36.256536 52.690149 -176.175304 56.765685 176.574761 0.000000 0.000000 0.000000 
-1.406109 79.170464 4.899883 0.000000 0.000000 0.000000 -0.919597 -41.276346 1.227710 -41.041473 0.476220 19.180935 67.354797 -10.871748 4.619458 -28.841375 -4.583166 -14.991336 0.000000 0.000000 0.000000 -0.960733 -40.676748 0.311295 -23.669322 -14.448437 -32.864992 57.367818 -4.444956 -5.979836 -31.015670 -10.401770 26.928499 0.000000 0.000000 0.000000 -0.364372 -40.702497 1.704995 -1.833127 -1.295534 -1.198450 13.091622 3.954937 -3.967843 2.473135 0.898623 -2.521646 0.000000 0.000000 0.000000 2.230502 0.704351 -2.186284 -1.080945 2.983531 -0.639763 0.000000 0.000000 0.000000 1.746359 0.727504 -2.301151 1.406836 2.242873 1.267629 -34.623144 -25.197854 -45.880689 7.513179 -79.532546 6.845985 0.000000 0.000000 0.000000 2.385327 0.576095 -3.007399 -0.001920 18.798376 -3.581159 -17.138666 32.319294 42.186680 -175.279716 60.583976 175.905416 0.000000 0.000000 0.000000 
